# xmcd
#
# Track frame offsets:
#	150
#	18405
#	37180
#	56992
#	79405
#	111917
#	129347
#	146720
#	162275
#	182767
#	201952
#	219957
#	240080
#	256857
#	272635
#	295210
#	313152
#	339825
#
# Disc length: 4702 seconds
#
# Revision: 0
# Processed by: cddbd v1.4PL0 Copyright (c) Steve Scherf et al.
# Submitted via: dBpowerAMP V4.0
#
DISCID=0b125c12
DTITLE=Albert King - The Albert King Collection I
DYEAR=2001
DGENRE=Blues
TTITLE0=I'm Ready
TTITLE1=Cold Women with Warm Hearts
TTITLE2=Cadillac Assembly Line
TTITLE3=Nobody Wants a Loser
TTITLE4=Ain't Nothing You Can Do
TTITLE5=My Babe
TTITLE6=Running Out of Steam
TTITLE7=Rub My Back
TTITLE8=A Real Good Sign
TTITLE9=You Upset Me Baby
TTITLE10=Love Mechanic
TTITLE11=Call My Job
TTITLE12=Get Out of My Life Woman
TTITLE13=Born Under a Bad Sign
TTITLE14=The Feeling
TTITLE15=I Get Evil
TTITLE16=Angel of Mercy
TTITLE17=Flat Tyre
EXTD=
EXTT0=
EXTT1=
EXTT2=
EXTT3=
EXTT4=
EXTT5=
EXTT6=
EXTT7=
EXTT8=
EXTT9=
EXTT10=
EXTT11=
EXTT12=
EXTT13=
EXTT14=
EXTT15=
EXTT16=
EXTT17=
PLAYORDER=
